<mxfile host="app.diagrams.net" agent="Mozilla/5.0 (Windows NT 10.0; Win64; x64) AppleWebKit/537.36 (KHTML, like Gecko) Chrome/130.0.0.0 Safari/537.36" version="24.7.17">
  <diagram id="C5RBs43oDa-KdzZeNtuy" name="Page-1">
    <mxGraphModel dx="870" dy="870" grid="1" gridSize="10" guides="1" tooltips="1" connect="1" arrows="1" fold="1" page="1" pageScale="1" pageWidth="827" pageHeight="1169" math="0" shadow="0">
      <root>
        <mxCell id="WIyWlLk6GJQsqaUBKTNV-0" />
        <mxCell id="WIyWlLk6GJQsqaUBKTNV-1" parent="WIyWlLk6GJQsqaUBKTNV-0" />
        <mxCell id="zkfFHV4jXpPFQw0GAbJ--0" value="RubikClock" style="swimlane;fontStyle=2;align=center;verticalAlign=top;childLayout=stackLayout;horizontal=1;startSize=26;horizontalStack=0;resizeParent=1;resizeLast=0;collapsible=1;marginBottom=0;rounded=0;shadow=0;strokeWidth=1;" parent="WIyWlLk6GJQsqaUBKTNV-1" vertex="1">
          <mxGeometry x="620" y="110" width="160" height="70" as="geometry">
            <mxRectangle x="230" y="140" width="160" height="26" as="alternateBounds" />
          </mxGeometry>
        </mxCell>
        <mxCell id="zkfFHV4jXpPFQw0GAbJ--1" value="+ main(args: String[]): void" style="text;align=left;verticalAlign=top;spacingLeft=4;spacingRight=4;overflow=hidden;rotatable=0;points=[[0,0.5],[1,0.5]];portConstraint=eastwest;" parent="zkfFHV4jXpPFQw0GAbJ--0" vertex="1">
          <mxGeometry y="26" width="160" height="26" as="geometry" />
        </mxCell>
        <mxCell id="zkfFHV4jXpPFQw0GAbJ--4" value="" style="line;html=1;strokeWidth=1;align=left;verticalAlign=middle;spacingTop=-1;spacingLeft=3;spacingRight=3;rotatable=0;labelPosition=right;points=[];portConstraint=eastwest;" parent="zkfFHV4jXpPFQw0GAbJ--0" vertex="1">
          <mxGeometry y="52" width="160" height="8" as="geometry" />
        </mxCell>
        <mxCell id="GjA11cIJGmMy1BR0I-tB-1" value="  RubikClockGUI  " style="swimlane;fontStyle=2;align=center;verticalAlign=top;childLayout=stackLayout;horizontal=1;startSize=26;horizontalStack=0;resizeParent=1;resizeLast=0;collapsible=1;marginBottom=0;rounded=0;shadow=0;strokeWidth=1;" vertex="1" parent="WIyWlLk6GJQsqaUBKTNV-1">
          <mxGeometry x="620" y="228" width="160" height="112" as="geometry">
            <mxRectangle x="230" y="140" width="160" height="26" as="alternateBounds" />
          </mxGeometry>
        </mxCell>
        <mxCell id="GjA11cIJGmMy1BR0I-tB-2" value="- board: Board " style="text;align=left;verticalAlign=top;spacingLeft=4;spacingRight=4;overflow=hidden;rotatable=0;points=[[0,0.5],[1,0.5]];portConstraint=eastwest;" vertex="1" parent="GjA11cIJGmMy1BR0I-tB-1">
          <mxGeometry y="26" width="160" height="26" as="geometry" />
        </mxCell>
        <mxCell id="GjA11cIJGmMy1BR0I-tB-4" value=" - boardGUI: BoardGUI  " style="text;align=left;verticalAlign=top;spacingLeft=4;spacingRight=4;overflow=hidden;rotatable=0;points=[[0,0.5],[1,0.5]];portConstraint=eastwest;" vertex="1" parent="GjA11cIJGmMy1BR0I-tB-1">
          <mxGeometry y="52" width="160" height="26" as="geometry" />
        </mxCell>
        <mxCell id="GjA11cIJGmMy1BR0I-tB-3" value="" style="line;html=1;strokeWidth=1;align=left;verticalAlign=middle;spacingTop=-1;spacingLeft=3;spacingRight=3;rotatable=0;labelPosition=right;points=[];portConstraint=eastwest;" vertex="1" parent="GjA11cIJGmMy1BR0I-tB-1">
          <mxGeometry y="78" width="160" height="8" as="geometry" />
        </mxCell>
        <mxCell id="GjA11cIJGmMy1BR0I-tB-5" value=" + RubikClockGUI(): void " style="text;align=left;verticalAlign=top;spacingLeft=4;spacingRight=4;overflow=hidden;rotatable=0;points=[[0,0.5],[1,0.5]];portConstraint=eastwest;" vertex="1" parent="GjA11cIJGmMy1BR0I-tB-1">
          <mxGeometry y="86" width="160" height="26" as="geometry" />
        </mxCell>
        <mxCell id="GjA11cIJGmMy1BR0I-tB-6" value="    BoardGUI  " style="swimlane;fontStyle=2;align=center;verticalAlign=top;childLayout=stackLayout;horizontal=1;startSize=26;horizontalStack=0;resizeParent=1;resizeLast=0;collapsible=1;marginBottom=0;rounded=0;shadow=0;strokeWidth=1;" vertex="1" parent="WIyWlLk6GJQsqaUBKTNV-1">
          <mxGeometry x="910" y="90" width="360" height="390" as="geometry">
            <mxRectangle x="230" y="140" width="160" height="26" as="alternateBounds" />
          </mxGeometry>
        </mxCell>
        <mxCell id="GjA11cIJGmMy1BR0I-tB-7" value="- board: Board " style="text;align=left;verticalAlign=top;spacingLeft=4;spacingRight=4;overflow=hidden;rotatable=0;points=[[0,0.5],[1,0.5]];portConstraint=eastwest;" vertex="1" parent="GjA11cIJGmMy1BR0I-tB-6">
          <mxGeometry y="26" width="360" height="26" as="geometry" />
        </mxCell>
        <mxCell id="GjA11cIJGmMy1BR0I-tB-8" value=" - boardPanel: JPanel   " style="text;align=left;verticalAlign=top;spacingLeft=4;spacingRight=4;overflow=hidden;rotatable=0;points=[[0,0.5],[1,0.5]];portConstraint=eastwest;" vertex="1" parent="GjA11cIJGmMy1BR0I-tB-6">
          <mxGeometry y="52" width="360" height="26" as="geometry" />
        </mxCell>
        <mxCell id="GjA11cIJGmMy1BR0I-tB-11" value=" - buttons: JButton[][]   " style="text;align=left;verticalAlign=top;spacingLeft=4;spacingRight=4;overflow=hidden;rotatable=0;points=[[0,0.5],[1,0.5]];portConstraint=eastwest;" vertex="1" parent="GjA11cIJGmMy1BR0I-tB-6">
          <mxGeometry y="78" width="360" height="26" as="geometry" />
        </mxCell>
        <mxCell id="GjA11cIJGmMy1BR0I-tB-20" value=" + BoardGUI(board: Board)" style="text;align=left;verticalAlign=top;spacingLeft=4;spacingRight=4;overflow=hidden;rotatable=0;points=[[0,0.5],[1,0.5]];portConstraint=eastwest;" vertex="1" parent="GjA11cIJGmMy1BR0I-tB-6">
          <mxGeometry y="104" width="360" height="26" as="geometry" />
        </mxCell>
        <mxCell id="GjA11cIJGmMy1BR0I-tB-9" value="" style="line;html=1;strokeWidth=1;align=left;verticalAlign=middle;spacingTop=-1;spacingLeft=3;spacingRight=3;rotatable=0;labelPosition=right;points=[];portConstraint=eastwest;" vertex="1" parent="GjA11cIJGmMy1BR0I-tB-6">
          <mxGeometry y="130" width="360" height="8" as="geometry" />
        </mxCell>
        <mxCell id="GjA11cIJGmMy1BR0I-tB-10" value=" + getBoardPanel(): JPanel  " style="text;align=left;verticalAlign=top;spacingLeft=4;spacingRight=4;overflow=hidden;rotatable=0;points=[[0,0.5],[1,0.5]];portConstraint=eastwest;" vertex="1" parent="GjA11cIJGmMy1BR0I-tB-6">
          <mxGeometry y="138" width="360" height="28" as="geometry" />
        </mxCell>
        <mxCell id="GjA11cIJGmMy1BR0I-tB-21" value=" - initializeBoardButtons(gbc: GridBagConstraints): void" style="text;align=left;verticalAlign=top;spacingLeft=4;spacingRight=4;overflow=hidden;rotatable=0;points=[[0,0.5],[1,0.5]];portConstraint=eastwest;" vertex="1" parent="GjA11cIJGmMy1BR0I-tB-6">
          <mxGeometry y="166" width="360" height="28" as="geometry" />
        </mxCell>
        <mxCell id="GjA11cIJGmMy1BR0I-tB-22" value=" - createBoardButton(field: Field): JButton " style="text;align=left;verticalAlign=top;spacingLeft=4;spacingRight=4;overflow=hidden;rotatable=0;points=[[0,0.5],[1,0.5]];portConstraint=eastwest;" vertex="1" parent="GjA11cIJGmMy1BR0I-tB-6">
          <mxGeometry y="194" width="360" height="28" as="geometry" />
        </mxCell>
        <mxCell id="GjA11cIJGmMy1BR0I-tB-23" value=" - createMouseListener(button: JButton): MouseAdapter" style="text;align=left;verticalAlign=top;spacingLeft=4;spacingRight=4;overflow=hidden;rotatable=0;points=[[0,0.5],[1,0.5]];portConstraint=eastwest;" vertex="1" parent="GjA11cIJGmMy1BR0I-tB-6">
          <mxGeometry y="222" width="360" height="28" as="geometry" />
        </mxCell>
        <mxCell id="GjA11cIJGmMy1BR0I-tB-24" value=" - addExtraButtons(gbc: GridBagConstraints): void" style="text;align=left;verticalAlign=top;spacingLeft=4;spacingRight=4;overflow=hidden;rotatable=0;points=[[0,0.5],[1,0.5]];portConstraint=eastwest;" vertex="1" parent="GjA11cIJGmMy1BR0I-tB-6">
          <mxGeometry y="250" width="360" height="28" as="geometry" />
        </mxCell>
        <mxCell id="GjA11cIJGmMy1BR0I-tB-25" value=" - createExtraButton(name: String, index: int): JButton" style="text;align=left;verticalAlign=top;spacingLeft=4;spacingRight=4;overflow=hidden;rotatable=0;points=[[0,0.5],[1,0.5]];portConstraint=eastwest;" vertex="1" parent="GjA11cIJGmMy1BR0I-tB-6">
          <mxGeometry y="278" width="360" height="28" as="geometry" />
        </mxCell>
        <mxCell id="GjA11cIJGmMy1BR0I-tB-26" value=" - handleExtraButtonClick(index: int): void" style="text;align=left;verticalAlign=top;spacingLeft=4;spacingRight=4;overflow=hidden;rotatable=0;points=[[0,0.5],[1,0.5]];portConstraint=eastwest;" vertex="1" parent="GjA11cIJGmMy1BR0I-tB-6">
          <mxGeometry y="306" width="360" height="28" as="geometry" />
        </mxCell>
        <mxCell id="GjA11cIJGmMy1BR0I-tB-27" value=" - updateButtonTexts(): void   " style="text;align=left;verticalAlign=top;spacingLeft=4;spacingRight=4;overflow=hidden;rotatable=0;points=[[0,0.5],[1,0.5]];portConstraint=eastwest;" vertex="1" parent="GjA11cIJGmMy1BR0I-tB-6">
          <mxGeometry y="334" width="360" height="28" as="geometry" />
        </mxCell>
        <mxCell id="GjA11cIJGmMy1BR0I-tB-28" value=" - showCompletionMessage(): void  " style="text;align=left;verticalAlign=top;spacingLeft=4;spacingRight=4;overflow=hidden;rotatable=0;points=[[0,0.5],[1,0.5]];portConstraint=eastwest;" vertex="1" parent="GjA11cIJGmMy1BR0I-tB-6">
          <mxGeometry y="362" width="360" height="28" as="geometry" />
        </mxCell>
        <mxCell id="GjA11cIJGmMy1BR0I-tB-12" value="     Field  " style="swimlane;fontStyle=2;align=center;verticalAlign=top;childLayout=stackLayout;horizontal=1;startSize=26;horizontalStack=0;resizeParent=1;resizeLast=0;collapsible=1;marginBottom=0;rounded=0;shadow=0;strokeWidth=1;" vertex="1" parent="WIyWlLk6GJQsqaUBKTNV-1">
          <mxGeometry x="990" y="530" width="200" height="138" as="geometry">
            <mxRectangle x="230" y="140" width="160" height="26" as="alternateBounds" />
          </mxGeometry>
        </mxCell>
        <mxCell id="GjA11cIJGmMy1BR0I-tB-13" value="- number: int " style="text;align=left;verticalAlign=top;spacingLeft=4;spacingRight=4;overflow=hidden;rotatable=0;points=[[0,0.5],[1,0.5]];portConstraint=eastwest;" vertex="1" parent="GjA11cIJGmMy1BR0I-tB-12">
          <mxGeometry y="26" width="200" height="26" as="geometry" />
        </mxCell>
        <mxCell id="GjA11cIJGmMy1BR0I-tB-15" value="" style="line;html=1;strokeWidth=1;align=left;verticalAlign=middle;spacingTop=-1;spacingLeft=3;spacingRight=3;rotatable=0;labelPosition=right;points=[];portConstraint=eastwest;" vertex="1" parent="GjA11cIJGmMy1BR0I-tB-12">
          <mxGeometry y="52" width="200" height="8" as="geometry" />
        </mxCell>
        <mxCell id="GjA11cIJGmMy1BR0I-tB-16" value=" + Field(number: int):  " style="text;align=left;verticalAlign=top;spacingLeft=4;spacingRight=4;overflow=hidden;rotatable=0;points=[[0,0.5],[1,0.5]];portConstraint=eastwest;" vertex="1" parent="GjA11cIJGmMy1BR0I-tB-12">
          <mxGeometry y="60" width="200" height="26" as="geometry" />
        </mxCell>
        <mxCell id="GjA11cIJGmMy1BR0I-tB-17" value=" + getNumber(): int    " style="text;align=left;verticalAlign=top;spacingLeft=4;spacingRight=4;overflow=hidden;rotatable=0;points=[[0,0.5],[1,0.5]];portConstraint=eastwest;" vertex="1" parent="GjA11cIJGmMy1BR0I-tB-12">
          <mxGeometry y="86" width="200" height="26" as="geometry" />
        </mxCell>
        <mxCell id="GjA11cIJGmMy1BR0I-tB-18" value=" + setNumber(number: int): void    " style="text;align=left;verticalAlign=top;spacingLeft=4;spacingRight=4;overflow=hidden;rotatable=0;points=[[0,0.5],[1,0.5]];portConstraint=eastwest;" vertex="1" parent="GjA11cIJGmMy1BR0I-tB-12">
          <mxGeometry y="112" width="200" height="26" as="geometry" />
        </mxCell>
        <mxCell id="GjA11cIJGmMy1BR0I-tB-29" value="    Board    " style="swimlane;fontStyle=2;align=center;verticalAlign=top;childLayout=stackLayout;horizontal=1;startSize=26;horizontalStack=0;resizeParent=1;resizeLast=0;collapsible=1;marginBottom=0;rounded=0;shadow=0;strokeWidth=1;" vertex="1" parent="WIyWlLk6GJQsqaUBKTNV-1">
          <mxGeometry x="530" y="376" width="360" height="556" as="geometry">
            <mxRectangle x="230" y="140" width="160" height="26" as="alternateBounds" />
          </mxGeometry>
        </mxCell>
        <mxCell id="GjA11cIJGmMy1BR0I-tB-30" value="- fields: Field[][]  " style="text;align=left;verticalAlign=top;spacingLeft=4;spacingRight=4;overflow=hidden;rotatable=0;points=[[0,0.5],[1,0.5]];portConstraint=eastwest;" vertex="1" parent="GjA11cIJGmMy1BR0I-tB-29">
          <mxGeometry y="26" width="360" height="26" as="geometry" />
        </mxCell>
        <mxCell id="GjA11cIJGmMy1BR0I-tB-31" value=" - boardSize: int    " style="text;align=left;verticalAlign=top;spacingLeft=4;spacingRight=4;overflow=hidden;rotatable=0;points=[[0,0.5],[1,0.5]];portConstraint=eastwest;" vertex="1" parent="GjA11cIJGmMy1BR0I-tB-29">
          <mxGeometry y="52" width="360" height="26" as="geometry" />
        </mxCell>
        <mxCell id="GjA11cIJGmMy1BR0I-tB-32" value=" - clickCount: int     " style="text;align=left;verticalAlign=top;spacingLeft=4;spacingRight=4;overflow=hidden;rotatable=0;points=[[0,0.5],[1,0.5]];portConstraint=eastwest;" vertex="1" parent="GjA11cIJGmMy1BR0I-tB-29">
          <mxGeometry y="78" width="360" height="26" as="geometry" />
        </mxCell>
        <mxCell id="GjA11cIJGmMy1BR0I-tB-44" value=" - initialClockState: int[][]" style="text;align=left;verticalAlign=top;spacingLeft=4;spacingRight=4;overflow=hidden;rotatable=0;points=[[0,0.5],[1,0.5]];portConstraint=eastwest;" vertex="1" parent="GjA11cIJGmMy1BR0I-tB-29">
          <mxGeometry y="104" width="360" height="26" as="geometry" />
        </mxCell>
        <mxCell id="GjA11cIJGmMy1BR0I-tB-33" value=" + Board(boardSize: int)" style="text;align=left;verticalAlign=top;spacingLeft=4;spacingRight=4;overflow=hidden;rotatable=0;points=[[0,0.5],[1,0.5]];portConstraint=eastwest;" vertex="1" parent="GjA11cIJGmMy1BR0I-tB-29">
          <mxGeometry y="130" width="360" height="26" as="geometry" />
        </mxCell>
        <mxCell id="GjA11cIJGmMy1BR0I-tB-34" value="" style="line;html=1;strokeWidth=1;align=left;verticalAlign=middle;spacingTop=-1;spacingLeft=3;spacingRight=3;rotatable=0;labelPosition=right;points=[];portConstraint=eastwest;" vertex="1" parent="GjA11cIJGmMy1BR0I-tB-29">
          <mxGeometry y="156" width="360" height="8" as="geometry" />
        </mxCell>
        <mxCell id="GjA11cIJGmMy1BR0I-tB-35" value=" + getBoardSize(): int   " style="text;align=left;verticalAlign=top;spacingLeft=4;spacingRight=4;overflow=hidden;rotatable=0;points=[[0,0.5],[1,0.5]];portConstraint=eastwest;" vertex="1" parent="GjA11cIJGmMy1BR0I-tB-29">
          <mxGeometry y="164" width="360" height="28" as="geometry" />
        </mxCell>
        <mxCell id="GjA11cIJGmMy1BR0I-tB-36" value="  + get(x: int, y: int): Field  " style="text;align=left;verticalAlign=top;spacingLeft=4;spacingRight=4;overflow=hidden;rotatable=0;points=[[0,0.5],[1,0.5]];portConstraint=eastwest;" vertex="1" parent="GjA11cIJGmMy1BR0I-tB-29">
          <mxGeometry y="192" width="360" height="28" as="geometry" />
        </mxCell>
        <mxCell id="GjA11cIJGmMy1BR0I-tB-37" value=" + incrementSurroundingClocks(extraButtonIndex: int): void " style="text;align=left;verticalAlign=top;spacingLeft=4;spacingRight=4;overflow=hidden;rotatable=0;points=[[0,0.5],[1,0.5]];portConstraint=eastwest;" vertex="1" parent="GjA11cIJGmMy1BR0I-tB-29">
          <mxGeometry y="220" width="360" height="28" as="geometry" />
        </mxCell>
        <mxCell id="GjA11cIJGmMy1BR0I-tB-38" value=" + allClocksAreMaxed(): boolean " style="text;align=left;verticalAlign=top;spacingLeft=4;spacingRight=4;overflow=hidden;rotatable=0;points=[[0,0.5],[1,0.5]];portConstraint=eastwest;" vertex="1" parent="GjA11cIJGmMy1BR0I-tB-29">
          <mxGeometry y="248" width="360" height="28" as="geometry" />
        </mxCell>
        <mxCell id="GjA11cIJGmMy1BR0I-tB-39" value=" + refreshGame(): void  " style="text;align=left;verticalAlign=top;spacingLeft=4;spacingRight=4;overflow=hidden;rotatable=0;points=[[0,0.5],[1,0.5]];portConstraint=eastwest;" vertex="1" parent="GjA11cIJGmMy1BR0I-tB-29">
          <mxGeometry y="276" width="360" height="28" as="geometry" />
        </mxCell>
        <mxCell id="GjA11cIJGmMy1BR0I-tB-40" value=" + incrementClickCount(): void  " style="text;align=left;verticalAlign=top;spacingLeft=4;spacingRight=4;overflow=hidden;rotatable=0;points=[[0,0.5],[1,0.5]];portConstraint=eastwest;" vertex="1" parent="GjA11cIJGmMy1BR0I-tB-29">
          <mxGeometry y="304" width="360" height="28" as="geometry" />
        </mxCell>
        <mxCell id="GjA11cIJGmMy1BR0I-tB-41" value=" + getClickCount(): int" style="text;align=left;verticalAlign=top;spacingLeft=4;spacingRight=4;overflow=hidden;rotatable=0;points=[[0,0.5],[1,0.5]];portConstraint=eastwest;" vertex="1" parent="GjA11cIJGmMy1BR0I-tB-29">
          <mxGeometry y="332" width="360" height="28" as="geometry" />
        </mxCell>
        <mxCell id="GjA11cIJGmMy1BR0I-tB-42" value="  - initializeBoard(): void      " style="text;align=left;verticalAlign=top;spacingLeft=4;spacingRight=4;overflow=hidden;rotatable=0;points=[[0,0.5],[1,0.5]];portConstraint=eastwest;" vertex="1" parent="GjA11cIJGmMy1BR0I-tB-29">
          <mxGeometry y="360" width="360" height="28" as="geometry" />
        </mxCell>
        <mxCell id="GjA11cIJGmMy1BR0I-tB-43" value=" - initializeFields(random: Random): void  " style="text;align=left;verticalAlign=top;spacingLeft=4;spacingRight=4;overflow=hidden;rotatable=0;points=[[0,0.5],[1,0.5]];portConstraint=eastwest;" vertex="1" parent="GjA11cIJGmMy1BR0I-tB-29">
          <mxGeometry y="388" width="360" height="28" as="geometry" />
        </mxCell>
        <mxCell id="GjA11cIJGmMy1BR0I-tB-45" value="  - initializeInitialClockState(): void  " style="text;align=left;verticalAlign=top;spacingLeft=4;spacingRight=4;overflow=hidden;rotatable=0;points=[[0,0.5],[1,0.5]];portConstraint=eastwest;" vertex="1" parent="GjA11cIJGmMy1BR0I-tB-29">
          <mxGeometry y="416" width="360" height="28" as="geometry" />
        </mxCell>
        <mxCell id="GjA11cIJGmMy1BR0I-tB-46" value=" - getSurroundingPositions(extraButtonIndex: int): int[][]  " style="text;align=left;verticalAlign=top;spacingLeft=4;spacingRight=4;overflow=hidden;rotatable=0;points=[[0,0.5],[1,0.5]];portConstraint=eastwest;" vertex="1" parent="GjA11cIJGmMy1BR0I-tB-29">
          <mxGeometry y="444" width="360" height="28" as="geometry" />
        </mxCell>
        <mxCell id="GjA11cIJGmMy1BR0I-tB-47" value=" - incrementClockPositions(positionsToIncrement: int[][]): void  " style="text;align=left;verticalAlign=top;spacingLeft=4;spacingRight=4;overflow=hidden;rotatable=0;points=[[0,0.5],[1,0.5]];portConstraint=eastwest;" vertex="1" parent="GjA11cIJGmMy1BR0I-tB-29">
          <mxGeometry y="472" width="360" height="28" as="geometry" />
        </mxCell>
        <mxCell id="GjA11cIJGmMy1BR0I-tB-48" value=" - incrementClockAtPosition(row: int, col: int): void  " style="text;align=left;verticalAlign=top;spacingLeft=4;spacingRight=4;overflow=hidden;rotatable=0;points=[[0,0.5],[1,0.5]];portConstraint=eastwest;" vertex="1" parent="GjA11cIJGmMy1BR0I-tB-29">
          <mxGeometry y="500" width="360" height="28" as="geometry" />
        </mxCell>
        <mxCell id="GjA11cIJGmMy1BR0I-tB-49" value=" - resetClockValues(): void  " style="text;align=left;verticalAlign=top;spacingLeft=4;spacingRight=4;overflow=hidden;rotatable=0;points=[[0,0.5],[1,0.5]];portConstraint=eastwest;" vertex="1" parent="GjA11cIJGmMy1BR0I-tB-29">
          <mxGeometry y="528" width="360" height="28" as="geometry" />
        </mxCell>
        <mxCell id="GjA11cIJGmMy1BR0I-tB-50" value="" style="endArrow=classic;html=1;rounded=0;edgeStyle=orthogonalEdgeStyle;dashed=1;dashPattern=8 8;" edge="1" parent="WIyWlLk6GJQsqaUBKTNV-1" source="zkfFHV4jXpPFQw0GAbJ--0" target="GjA11cIJGmMy1BR0I-tB-1">
          <mxGeometry width="50" height="50" relative="1" as="geometry">
            <mxPoint x="410" y="280" as="sourcePoint" />
            <mxPoint x="460" y="230" as="targetPoint" />
          </mxGeometry>
        </mxCell>
        <mxCell id="GjA11cIJGmMy1BR0I-tB-62" value="1" style="edgeLabel;html=1;align=center;verticalAlign=middle;resizable=0;points=[];" vertex="1" connectable="0" parent="GjA11cIJGmMy1BR0I-tB-50">
          <mxGeometry x="-0.8077" relative="1" as="geometry">
            <mxPoint x="9" y="3" as="offset" />
          </mxGeometry>
        </mxCell>
        <mxCell id="GjA11cIJGmMy1BR0I-tB-51" value="" style="endArrow=none;html=1;rounded=0;endFill=0;edgeStyle=orthogonalEdgeStyle;entryX=0;entryY=0.5;entryDx=0;entryDy=0;" edge="1" parent="WIyWlLk6GJQsqaUBKTNV-1" target="GjA11cIJGmMy1BR0I-tB-10">
          <mxGeometry width="50" height="50" relative="1" as="geometry">
            <mxPoint x="780" y="242" as="sourcePoint" />
            <mxPoint x="590" y="230" as="targetPoint" />
          </mxGeometry>
        </mxCell>
        <mxCell id="GjA11cIJGmMy1BR0I-tB-57" value="" style="endArrow=none;html=1;endSize=12;startArrow=diamondThin;startSize=30;startFill=0;edgeStyle=orthogonalEdgeStyle;rounded=0;endFill=0;exitX=0;exitY=0.5;exitDx=0;exitDy=0;" edge="1" parent="WIyWlLk6GJQsqaUBKTNV-1" source="GjA11cIJGmMy1BR0I-tB-22" target="GjA11cIJGmMy1BR0I-tB-29">
          <mxGeometry relative="1" as="geometry">
            <mxPoint x="790" y="350" as="sourcePoint" />
            <mxPoint x="950" y="350" as="targetPoint" />
            <Array as="points">
              <mxPoint x="840" y="298" />
            </Array>
          </mxGeometry>
        </mxCell>
        <mxCell id="GjA11cIJGmMy1BR0I-tB-61" value="" style="endArrow=classic;html=1;rounded=0;edgeStyle=orthogonalEdgeStyle;dashed=1;dashPattern=8 8;" edge="1" parent="WIyWlLk6GJQsqaUBKTNV-1" source="GjA11cIJGmMy1BR0I-tB-6" target="GjA11cIJGmMy1BR0I-tB-12">
          <mxGeometry width="50" height="50" relative="1" as="geometry">
            <mxPoint x="1320" y="710" as="sourcePoint" />
            <mxPoint x="1420" y="741" as="targetPoint" />
          </mxGeometry>
        </mxCell>
        <mxCell id="GjA11cIJGmMy1BR0I-tB-63" value="1" style="edgeLabel;html=1;align=center;verticalAlign=middle;resizable=0;points=[];" vertex="1" connectable="0" parent="WIyWlLk6GJQsqaUBKTNV-1">
          <mxGeometry x="710" y="219.99538461538464" as="geometry" />
        </mxCell>
        <mxCell id="GjA11cIJGmMy1BR0I-tB-64" value="1" style="edgeLabel;html=1;align=center;verticalAlign=middle;resizable=0;points=[];" vertex="1" connectable="0" parent="WIyWlLk6GJQsqaUBKTNV-1">
          <mxGeometry x="787" y="231.99538461538464" as="geometry" />
        </mxCell>
        <mxCell id="GjA11cIJGmMy1BR0I-tB-65" value="1" style="edgeLabel;html=1;align=center;verticalAlign=middle;resizable=0;points=[];" vertex="1" connectable="0" parent="WIyWlLk6GJQsqaUBKTNV-1">
          <mxGeometry x="744" y="244.99538461538464" as="geometry">
            <mxPoint x="159" y="-13" as="offset" />
          </mxGeometry>
        </mxCell>
        <mxCell id="GjA11cIJGmMy1BR0I-tB-66" value="1" style="edgeLabel;html=1;align=center;verticalAlign=middle;resizable=0;points=[];" vertex="1" connectable="0" parent="WIyWlLk6GJQsqaUBKTNV-1">
          <mxGeometry x="780" y="251.99538461538464" as="geometry">
            <mxPoint x="91" y="35" as="offset" />
          </mxGeometry>
        </mxCell>
        <mxCell id="GjA11cIJGmMy1BR0I-tB-67" value="1" style="edgeLabel;html=1;align=center;verticalAlign=middle;resizable=0;points=[];" vertex="1" connectable="0" parent="WIyWlLk6GJQsqaUBKTNV-1">
          <mxGeometry x="741" y="329.99538461538464" as="geometry">
            <mxPoint x="91" y="35" as="offset" />
          </mxGeometry>
        </mxCell>
        <mxCell id="GjA11cIJGmMy1BR0I-tB-69" value="1" style="edgeLabel;html=1;align=center;verticalAlign=middle;resizable=0;points=[];" vertex="1" connectable="0" parent="WIyWlLk6GJQsqaUBKTNV-1">
          <mxGeometry x="820" y="559.9953846153846" as="geometry">
            <mxPoint x="91" y="35" as="offset" />
          </mxGeometry>
        </mxCell>
        <mxCell id="GjA11cIJGmMy1BR0I-tB-70" value="0..*" style="edgeLabel;html=1;align=center;verticalAlign=middle;resizable=0;points=[];" vertex="1" connectable="0" parent="WIyWlLk6GJQsqaUBKTNV-1">
          <mxGeometry x="885" y="559.9953846153846" as="geometry">
            <mxPoint x="91" y="35" as="offset" />
          </mxGeometry>
        </mxCell>
        <mxCell id="GjA11cIJGmMy1BR0I-tB-71" value="" style="endArrow=none;html=1;endSize=12;startArrow=diamondThin;startSize=30;startFill=1;edgeStyle=orthogonalEdgeStyle;rounded=0;endFill=0;exitX=1;exitY=0.5;exitDx=0;exitDy=0;" edge="1" parent="WIyWlLk6GJQsqaUBKTNV-1" source="GjA11cIJGmMy1BR0I-tB-37" target="GjA11cIJGmMy1BR0I-tB-12">
          <mxGeometry relative="1" as="geometry">
            <mxPoint x="920" y="650" as="sourcePoint" />
            <mxPoint x="910" y="688" as="targetPoint" />
            <Array as="points">
              <mxPoint x="960" y="610" />
              <mxPoint x="960" y="610" />
            </Array>
          </mxGeometry>
        </mxCell>
        <mxCell id="GjA11cIJGmMy1BR0I-tB-74" value="1" style="edgeLabel;html=1;align=center;verticalAlign=middle;resizable=0;points=[];" vertex="1" connectable="0" parent="WIyWlLk6GJQsqaUBKTNV-1">
          <mxGeometry x="1011" y="455.99538461538464" as="geometry">
            <mxPoint x="91" y="35" as="offset" />
          </mxGeometry>
        </mxCell>
        <mxCell id="GjA11cIJGmMy1BR0I-tB-75" value="0..*" style="edgeLabel;html=1;align=center;verticalAlign=middle;resizable=0;points=[];" vertex="1" connectable="0" parent="WIyWlLk6GJQsqaUBKTNV-1">
          <mxGeometry x="1016" y="483.99538461538464" as="geometry">
            <mxPoint x="91" y="35" as="offset" />
          </mxGeometry>
        </mxCell>
      </root>
    </mxGraphModel>
  </diagram>
</mxfile>
